<svg width="20" height="20" viewBox="0 0 20 20" fill="none" xmlns="http://www.w3.org/2000/svg">
  <path d="M11.2 2.3C12.4 3.7 12.7 5.2 12.1 6.9C11.8 7.7 11.3 8.4 10.8 9C10.8 9 13.7 8.1 15.2 9.7C16.7 11.2 16.3 13.8 14.4 15.6C12.5 17.4 9.7 17.7 8.1 16.2C6.5 14.7 7.4 11.8 7.4 11.8C6.7 12.4 5.8 12.8 4.9 12.9C3.1 13.2 1.8 12.6 1 11.3C2 10.9 2.7 10.3 3.1 9.3C3.4 8.5 3.5 7.8 3.7 7.1C4 5.4 4.7 4.1 6 3.1C7.2 2.2 8.7 1.8 10.2 2C10.5 2 10.9 2.1 11.2 2.3Z" fill="#D64949"/>
  <path d="M14 4.1C14.7 4.7 15.1 5.4 15.2 6.2C16 5.6 16.5 4.6 16.3 3.6C16.2 2.8 15.7 2.1 14.9 1.6C14.6 2.5 14.3 3.3 14 4.1Z" fill="#F08E8E"/>
</svg>
